<svg width="40" height="40" viewBox="0 0 40 40" fill="none" xmlns="http://www.w3.org/2000/svg">
<g clip-path="url(#clip0_82_3016)">
<rect width="40" height="40" fill="white"/>
<g clip-path="url(#clip1_82_3016)">
<path fill-rule="evenodd" clip-rule="evenodd" d="M-22 0H55V41H-22V0Z" fill="#01236A"/>
<path fill-rule="evenodd" clip-rule="evenodd" d="M-6.57666 0.252331H25.7283V15.4922H-6.57666V0.252331Z" fill="#01236A"/>
<path fill-rule="evenodd" clip-rule="evenodd" d="M-3.10639 15.4922L6.87893 10.6304L4.69373 8.89584L5.40833 7.99048L-6.57715 13.8262V15.4922H-3.10675H-3.10639Z" fill="white"/>
<path fill-rule="evenodd" clip-rule="evenodd" d="M-4.19598 15.4922L6.46469 10.3015L5.5413 9.56836L-6.57666 15.4687V15.4922H-4.19562H-4.19598Z" fill="#DF042E"/>
<path fill-rule="evenodd" clip-rule="evenodd" d="M-6.57666 0.252331V1.96306L7.80461 8.91317V6.11876H8.95625L-3.18258 0.252331H-6.57666Z" fill="white"/>
<path fill-rule="evenodd" clip-rule="evenodd" d="M-6.57666 0.252331V1.43312L7.80461 8.38324V7.20208L-6.5763 0.252331H-6.57666Z" fill="#DF042E"/>
<path fill-rule="evenodd" clip-rule="evenodd" d="M25.7287 15.4922V13.7815L11.3474 6.83135V9.62576H10.1958L22.3343 15.4922H25.7284H25.7287Z" fill="white"/>
<path fill-rule="evenodd" clip-rule="evenodd" d="M25.7289 15.4922V14.3114L11.3477 7.36128V8.54243L25.7282 15.4922H25.7286H25.7289Z" fill="#DF042E"/>
<path fill-rule="evenodd" clip-rule="evenodd" d="M22.2573 0.252331L12.272 5.11412L14.4572 6.84868L13.7426 7.75403L25.728 1.91829V0.252331H22.2576H22.2573Z" fill="white"/>
<path fill-rule="evenodd" clip-rule="evenodd" d="M23.3472 0.252331L12.6865 5.44299L13.6103 6.17615L25.7282 0.275795V0.252331H23.3472Z" fill="#DF042E"/>
<path fill-rule="evenodd" clip-rule="evenodd" d="M-6.57666 5.06647V10.6784H25.7283V5.06647H-6.57666Z" fill="white"/>
<path fill-rule="evenodd" clip-rule="evenodd" d="M6.77686 0.252331V15.4922H12.3734V0.252331H6.77686Z" fill="white"/>
<path fill-rule="evenodd" clip-rule="evenodd" d="M7.82617 0.252331V15.4922H11.3243V0.252331H7.82617Z" fill="#DF042E"/>
<path fill-rule="evenodd" clip-rule="evenodd" d="M-6.57666 6.11876V9.62612H25.7283V6.11876H-6.57666Z" fill="#DF042E"/>
<path fill-rule="evenodd" clip-rule="evenodd" d="M5.76296 24.4942L6.28712 25.8251L7.65188 25.406L6.94088 26.6467L8.11844 27.4553L6.7076 27.6716L6.81128 29.0989L5.76332 28.1275L4.71536 29.0989L4.81904 27.6716L3.4082 27.4553L4.58576 26.6467L3.87476 25.406L5.23952 25.8251L5.76368 24.4942H5.76296Z" fill="#FEFEFE"/>
<path fill-rule="evenodd" clip-rule="evenodd" d="M23.6676 19.1349L24.0178 20.0244L24.9297 19.7443L24.4545 20.5731L25.2411 21.1131L24.2986 21.2575L24.3681 22.2113L23.6679 21.5622L22.9677 22.2113L23.0372 21.2575L22.0947 21.1131L22.8813 20.5731L22.4061 19.7443L23.318 20.0244L23.6683 19.1349H23.6676Z" fill="#FEFEFE"/>
<path fill-rule="evenodd" clip-rule="evenodd" d="M31.1505 12.7035L31.5008 13.593L32.4126 13.3129L31.9374 14.1417L32.724 14.6818L31.7816 14.8262L31.851 15.7799L31.1508 15.1308L30.4506 15.7799L30.5201 14.8262L29.5776 14.6818L30.3642 14.1417L29.889 13.3129L30.8009 13.593L31.1512 12.7035H31.1505Z" fill="#FEFEFE"/>
<path fill-rule="evenodd" clip-rule="evenodd" d="M37.0294 16.991L37.3797 17.8805L38.2915 17.6004L37.8163 18.4292L38.6029 18.9692L37.6605 19.1136L37.7299 20.0674L37.0297 19.4183L36.3295 20.0674L36.399 19.1136L35.4565 18.9692L36.2431 18.4292L35.7679 17.6004L36.6798 17.8805L37.0301 16.991H37.0294Z" fill="#FEFEFE"/>
<path fill-rule="evenodd" clip-rule="evenodd" d="M33.5578 21.4474L33.8419 22.2669L34.7069 22.2845L34.0175 22.8087L34.2681 23.6393L33.5578 23.1437L32.8475 23.6393L33.0981 22.8087L32.4087 22.2845L33.2738 22.2669L33.5578 21.4474Z" fill="white"/>
<path fill-rule="evenodd" clip-rule="evenodd" d="M31.1505 27.1741L31.5008 28.0636L32.4126 27.7835L31.9374 28.6123L32.724 29.1524L31.7816 29.2968L31.851 30.2505L31.1508 29.6014L30.4506 30.2505L30.5201 29.2968L29.5776 29.1524L30.3642 28.6123L29.889 27.7835L30.8009 28.0636L31.1512 27.1741H31.1505Z" fill="#FEFEFE"/>
</g>
</g>
<defs>
<clipPath id="clip0_82_3016">
<rect width="40" height="40" fill="white"/>
</clipPath>
<clipPath id="clip1_82_3016">
<rect width="77" height="41" fill="white" transform="translate(-22)"/>
</clipPath>
</defs>
</svg>
