<svg width="147" height="106" viewBox="0 0 147 106" fill="none" xmlns="http://www.w3.org/2000/svg">
<rect width="147" height="106" fill="white"/>
<rect x="36" y="11" width="74" height="84" rx="7" fill="#FAFBFC" stroke="#CDD5E0" stroke-width="2"/>
<rect x="50" y="24" width="46" height="6" rx="3" fill="#4A5567"/>
<rect x="45" y="38" width="10" height="10" rx="5" fill="#CDD5E0"/>
<rect x="59" y="41" width="29" height="4" rx="2" fill="#CDD5E0"/>
<rect x="94" y="41" width="7" height="4" rx="2" fill="#97A3B6"/>
<rect x="45" y="50" width="10" height="10" rx="5" fill="#CDD5E0"/>
<rect x="59" y="53" width="24" height="4" rx="2" fill="#CDD5E0"/>
<rect x="94" y="53" width="7" height="4" rx="2" fill="#97A3B6"/>
<rect x="45" y="62" width="10" height="10" rx="5" fill="#CDD5E0"/>
<rect x="59" y="65" width="32" height="4" rx="2" fill="#CDD5E0"/>
<rect x="94" y="65" width="7" height="4" rx="2" fill="#97A3B6"/>
<rect x="45" y="81" width="25" height="4" rx="2" fill="#E3E8EF" fill-opacity="0.9"/>
</svg>
