<svg width="16" height="16" viewBox="0 0 16 16" fill="none" xmlns="http://www.w3.org/2000/svg">
<g clip-path="url(#clip0_2036_5060)">
<path d="M7.99992 14.6667C11.6818 14.6667 14.6666 11.6819 14.6666 8C14.6666 4.3181 11.6818 1.33334 7.99992 1.33334C4.31802 1.33334 1.33325 4.3181 1.33325 8C1.33325 11.6819 4.31802 14.6667 7.99992 14.6667Z" stroke="#4A5C64" stroke-width="1.2" stroke-linecap="round" stroke-linejoin="round"/>
<mask id="mask0_2036_5060" style="mask-type:alpha" maskUnits="userSpaceOnUse" x="1" y="1" width="14" height="14">
<path d="M8.00016 14.6667C11.6821 14.6667 14.6668 11.6819 14.6668 8C14.6668 4.3181 11.6821 1.33333 8.00016 1.33333C4.31826 1.33333 1.3335 4.3181 1.3335 8C1.3335 11.6819 4.31826 14.6667 8.00016 14.6667Z" fill="white"/>
</mask>
<g mask="url(#mask0_2036_5060)">
<path d="M8 0.799805L8.49264 0.457309L8 -0.251304L7.50736 0.457309L8 0.799805ZM10.4004 8H11.0004V7.99998L10.4004 8ZM8 15.2002L7.50734 15.5427L8 16.2514L8.49266 15.5427L8 15.2002ZM5.59961 8L4.99961 7.99998V8H5.59961ZM8 0.799805L7.50736 1.1423C8.99593 3.28346 9.80031 5.59553 9.80039 8.00002L10.4004 8L11.0004 7.99998C11.0003 5.315 10.0992 2.76815 8.49264 0.457309L8 0.799805ZM10.4004 8H9.80039C9.80039 10.4044 8.99581 12.7166 7.50734 14.8577L8 15.2002L8.49266 15.5427C10.099 13.2319 11.0004 10.685 11.0004 8H10.4004ZM8 15.2002L8.49266 14.8577C7.0042 12.7166 6.19961 10.4044 6.19961 8H5.59961H4.99961C4.99961 10.685 5.90098 13.2319 7.50734 15.5427L8 15.2002ZM5.59961 8L6.19961 8.00002C6.19969 5.59553 7.00407 3.28345 8.49264 1.1423L8 0.799805L7.50736 0.457309C5.90081 2.76815 4.9997 5.315 4.99961 7.99998L5.59961 8Z" fill="#4A5C64"/>
<rect x="0.6" y="6.2" width="14.8" height="3.6" stroke="#4A5C64" stroke-width="1.2"/>
</g>
</g>
<defs>
<clipPath id="clip0_2036_5060">
<rect width="16" height="16" fill="white"/>
</clipPath>
</defs>
</svg>
