<svg width="147" height="106" viewBox="0 0 147 106" fill="none" xmlns="http://www.w3.org/2000/svg">
<rect width="147" height="106" fill="white"/>
<rect x="39" y="7" width="68" height="92" rx="7" fill="#FAFBFC" stroke="#CDD5E0" stroke-width="2"/>
<rect x="53" y="67" width="40" height="6" rx="3" fill="#CDD5E0"/>
<rect x="61" y="79" width="24" height="6" rx="3" fill="#CDD5E0"/>
<g clip-path="url(#clip0_2346_10545)">
<path d="M73.0002 55.6666C82.2049 55.6666 89.6668 48.2047 89.6668 39C89.6668 29.7952 82.2049 22.3333 73.0002 22.3333C63.7954 22.3333 56.3335 29.7952 56.3335 39C56.3335 48.2047 63.7954 55.6666 73.0002 55.6666Z" stroke="#97A3B6" stroke-width="2" stroke-linecap="round" stroke-linejoin="round"/>
<mask id="mask0_2346_10545" style="mask-type:alpha" maskUnits="userSpaceOnUse" x="56" y="22" width="34" height="34">
<path d="M73.0002 55.6666C82.2049 55.6666 89.6668 48.2047 89.6668 39C89.6668 29.7952 82.2049 22.3333 73.0002 22.3333C63.7954 22.3333 56.3335 29.7952 56.3335 39C56.3335 48.2047 63.7954 55.6666 73.0002 55.6666Z" fill="white"/>
</mask>
<g mask="url(#mask0_2346_10545)">
<path d="M73 20.9961L73.821 20.4252L73 19.2444L72.179 20.4252L73 20.9961ZM79 39.001L80 39.001V39.001H79ZM73 57.0049L72.179 57.5758L73 58.7566L73.821 57.5758L73 57.0049ZM67 39.001H66V39.001L67 39.001ZM73 20.9961L72.179 21.567C75.9506 26.9912 78 32.8714 78 39.001H79H80C80 32.4044 77.7897 26.1328 73.821 20.4252L73 20.9961ZM79 39.001L78 39.001C78 45.1302 75.9503 51.0099 72.179 56.434L73 57.0049L73.821 57.5758C77.7894 51.8684 80 45.5973 80 39.001L79 39.001ZM73 57.0049L73.821 56.434C70.0497 51.0099 68 45.1302 68 39.001L67 39.001L66 39.001C66 45.5973 68.2107 51.8684 72.179 57.5758L73 57.0049ZM67 39.001H68C68 32.8714 70.0495 26.9912 73.821 21.567L73 20.9961L72.179 20.4252C68.2103 26.1328 66 32.4044 66 39.001H67Z" fill="#97A3B6"/>
<rect x="54" y="34" width="38" height="10" stroke="#97A3B6" stroke-width="2"/>
</g>
</g>
<defs>
<clipPath id="clip0_2346_10545">
<rect width="40" height="40" fill="white" transform="translate(53 19)"/>
</clipPath>
</defs>
</svg>
