<svg width="40" height="40" viewBox="0 0 40 40" fill="none" xmlns="http://www.w3.org/2000/svg">
<g clip-path="url(#clip0_82_3147)">
<rect width="40" height="40" fill="#1967B2"/>
<g clip-path="url(#clip1_82_3147)">
<path fill-rule="evenodd" clip-rule="evenodd" d="M0 0H40V40H0V0Z" fill="#DA1E31"/>
<path fill-rule="evenodd" clip-rule="evenodd" d="M5.00488 20.3234H8.33685V20.9933H5.00488V20.3234Z" fill="#FED300"/>
<path fill-rule="evenodd" clip-rule="evenodd" d="M5.04492 19.0067H8.2796L6.65942 19.9741L5.04492 19.0067Z" fill="#FED300"/>
<path fill-rule="evenodd" clip-rule="evenodd" d="M7.51247 21.5886C8.00299 21.8759 8.33203 22.4053 8.33203 23.0109C8.33203 23.9227 7.58653 24.6617 6.6668 24.6617C6.61666 24.6617 6.56702 24.6594 6.51808 24.6551C5.93805 24.4954 5.84185 24.0113 5.89748 23.7454C5.9505 23.4914 6.14488 23.0633 6.80894 23.0902C7.13419 23.093 7.47788 22.7636 7.58743 22.4833C7.68003 22.2462 7.6598 21.9505 7.51257 21.5886H7.51247ZM6.66191 23.5374C6.85469 23.5374 7.01109 23.6936 7.01109 23.8864C7.01109 24.0792 6.85479 24.2356 6.66191 24.2356C6.46903 24.2356 6.31284 24.0793 6.31284 23.8864C6.31284 23.6935 6.46913 23.5374 6.66191 23.5374Z" fill="#FED300"/>
<path fill-rule="evenodd" clip-rule="evenodd" d="M5.00488 25.0005H8.33685V25.6704H5.00488V25.0005Z" fill="#FED300"/>
<path fill-rule="evenodd" clip-rule="evenodd" d="M5.04492 26.0177H8.2796L6.65942 26.9851L5.04492 26.0177Z" fill="#FED300"/>
<path fill-rule="evenodd" clip-rule="evenodd" d="M2.99707 19.0035H4.6634V26.9961H2.99707V19.0035Z" fill="#FED300"/>
<path fill-rule="evenodd" clip-rule="evenodd" d="M8.67578 19.0035H10.3422V26.9961H8.67578V19.0035Z" fill="#FED300"/>
<path fill-rule="evenodd" clip-rule="evenodd" d="M5.82434 24.4256C5.33382 24.1383 5.00488 23.6089 5.00488 23.0033C5.00488 22.0915 5.75038 21.3525 6.67012 21.3525C6.72025 21.3525 6.7699 21.3548 6.81884 21.3591C7.39887 21.5189 7.49506 22.0029 7.43954 22.2688C7.38641 22.5228 7.19213 22.9509 6.52807 22.924C6.20282 22.9212 5.85913 23.2505 5.74958 23.5309C5.65708 23.7679 5.67732 24.0638 5.82444 24.4256H5.82434ZM6.6749 22.4769C6.48202 22.4769 6.32573 22.3206 6.32573 22.1278C6.32573 21.935 6.48202 21.7786 6.6749 21.7786C6.86778 21.7786 7.02398 21.9349 7.02398 22.1278C7.02398 22.3207 6.86768 22.4769 6.6749 22.4769Z" fill="#FED300"/>
<path fill-rule="evenodd" clip-rule="evenodd" d="M6.66953 15.0132C7.40037 15.0132 7.99286 15.6057 7.99286 16.3366C7.99286 17.0674 7.40037 17.6598 6.66953 17.6598C5.93868 17.6598 5.34619 17.0674 5.34619 16.3366C5.34619 15.6057 5.93868 15.0132 6.66953 15.0132Z" fill="#FED300"/>
<path fill-rule="evenodd" clip-rule="evenodd" d="M4.84424 16.823C4.86826 18.236 6.06819 18.6414 6.65012 18.665C7.28328 18.6907 8.46338 18.1846 8.48391 16.8138C8.11221 17.6767 7.26982 17.9915 6.66278 17.9928C6.05663 17.994 5.21086 17.6787 4.84424 16.823Z" fill="#FED300"/>
<path fill-rule="evenodd" clip-rule="evenodd" d="M7.49931 13.776C7.50011 13.7909 7.50051 13.8058 7.50051 13.821C7.50051 14.2771 7.1307 14.6469 6.67457 14.6469C6.21844 14.6469 5.84863 14.2771 5.84863 13.821C5.87365 13.5677 6.05616 13.5013 6.06783 13.3575C6.05925 13.0615 6.15744 12.9977 6.27436 12.8619C6.1393 13.212 6.34144 13.239 6.31573 13.3987C6.30556 13.4616 6.27247 13.517 6.19641 13.5594C6.11886 13.6144 6.16501 13.8353 6.33576 13.8452C6.3858 13.8481 6.53492 13.8235 6.49934 13.5548C6.4794 13.3827 6.2946 13.1955 6.62324 12.761C6.70348 12.6503 6.3867 12.2637 6.77505 12.0185C6.46076 12.4646 6.94061 12.5798 6.96862 13.0488C6.98039 13.2783 6.80007 13.4064 6.82788 13.6333C6.86217 13.8366 6.99982 13.8464 7.05076 13.8376C7.10498 13.8283 7.2565 13.6705 7.13917 13.5647C7.07807 13.5218 7.04189 13.4735 7.02195 13.4216C6.95596 13.2497 7.21802 13.2015 7.04418 12.8576C7.36006 13.1376 7.20616 13.2093 7.27105 13.3853C7.3472 13.5154 7.46612 13.5977 7.49951 13.7759L7.49931 13.776Z" fill="#FED300"/>
<path fill-rule="evenodd" clip-rule="evenodd" d="M13.2959 0H26.648V40H13.2959V0Z" fill="#0867B2"/>
</g>
</g>
<defs>
<clipPath id="clip0_82_3147">
<rect width="40" height="40" fill="white"/>
</clipPath>
<clipPath id="clip1_82_3147">
<rect width="40" height="40" fill="white"/>
</clipPath>
</defs>
</svg>
