<svg width="64" height="64" viewBox="0 0 64 64" fill="none" xmlns="http://www.w3.org/2000/svg">
<path d="M49 2C51.2091 2 53 3.79086 53 6H57C59.2091 6 61 7.79086 61 10V45C61 47.2091 59.2091 49 57 49H29C26.7909 49 25 47.2091 25 45V10C25 7.79086 26.7909 6 29 6H33C33 3.79086 34.7909 2 37 2H49Z" fill="url(#paint0_linear_2279_14361)"/>
<foreignObject x="-5" y="7" width="52" height="63"><div xmlns="http://www.w3.org/1999/xhtml" style="backdrop-filter:blur(4px);clip-path:url(#bgblur_0_2279_14361_clip_path);height:100%;width:100%"></div></foreignObject><g filter="url(#filter0_i_2279_14361)" data-figma-bg-blur-radius="8">
<path d="M27 15C29.2091 15 31 16.7909 31 19H35C37.2091 19 39 20.7909 39 23V58C39 60.2091 37.2091 62 35 62H7C4.79086 62 3 60.2091 3 58V23C3 20.7909 4.79086 19 7 19H11C11 16.7909 12.7909 15 15 15H27Z" fill="#85DEFF" fill-opacity="0.4"/>
</g>
<g filter="url(#filter1_d_2279_14361)">
<path d="M23 47C23.5523 47 24 47.4477 24 48C24 48.5523 23.5523 49 23 49H10C9.44772 49 9 48.5523 9 48C9 47.4477 9.44772 47 10 47H23ZM32 40C32.5523 40 33 40.4477 33 41C33 41.5523 32.5523 42 32 42H10C9.44772 42 9 41.5523 9 41C9 40.4477 9.44772 40 10 40H32ZM32 33C32.5523 33 33 33.4477 33 34C33 34.5523 32.5523 35 32 35H10C9.44772 35 9 34.5523 9 34C9 33.4477 9.44772 33 10 33H32Z" fill="white" fill-opacity="0.9" shape-rendering="crispEdges"/>
</g>
<defs>
<filter id="filter0_i_2279_14361" x="-5" y="7" width="52" height="63" filterUnits="userSpaceOnUse" color-interpolation-filters="sRGB">
<feFlood flood-opacity="0" result="BackgroundImageFix"/>
<feBlend mode="normal" in="SourceGraphic" in2="BackgroundImageFix" result="shape"/>
<feColorMatrix in="SourceAlpha" type="matrix" values="0 0 0 0 0 0 0 0 0 0 0 0 0 0 0 0 0 0 127 0" result="hardAlpha"/>
<feOffset/>
<feGaussianBlur stdDeviation="5"/>
<feComposite in2="hardAlpha" operator="arithmetic" k2="-1" k3="1"/>
<feColorMatrix type="matrix" values="0 0 0 0 1 0 0 0 0 1 0 0 0 0 1 0 0 0 0.5 0"/>
<feBlend mode="normal" in2="shape" result="effect1_innerShadow_2279_14361"/>
</filter>
<clipPath id="bgblur_0_2279_14361_clip_path" transform="translate(5 -7)"><path d="M27 15C29.2091 15 31 16.7909 31 19H35C37.2091 19 39 20.7909 39 23V58C39 60.2091 37.2091 62 35 62H7C4.79086 62 3 60.2091 3 58V23C3 20.7909 4.79086 19 7 19H11C11 16.7909 12.7909 15 15 15H27Z"/>
</clipPath><filter id="filter1_d_2279_14361" x="3" y="27" width="36" height="28" filterUnits="userSpaceOnUse" color-interpolation-filters="sRGB">
<feFlood flood-opacity="0" result="BackgroundImageFix"/>
<feColorMatrix in="SourceAlpha" type="matrix" values="0 0 0 0 0 0 0 0 0 0 0 0 0 0 0 0 0 0 127 0" result="hardAlpha"/>
<feOffset/>
<feGaussianBlur stdDeviation="3"/>
<feComposite in2="hardAlpha" operator="out"/>
<feColorMatrix type="matrix" values="0 0 0 0 0.33693 0 0 0 0 0.598955 0 0 0 0 0.696695 0 0 0 0.4 0"/>
<feBlend mode="normal" in2="BackgroundImageFix" result="effect1_dropShadow_2279_14361"/>
<feBlend mode="normal" in="SourceGraphic" in2="effect1_dropShadow_2279_14361" result="shape"/>
</filter>
<linearGradient id="paint0_linear_2279_14361" x1="25" y1="2" x2="65.1225" y2="45.1683" gradientUnits="userSpaceOnUse">
<stop stop-color="#48C6F5"/>
<stop offset="1" stop-color="#3B94E9"/>
</linearGradient>
</defs>
</svg>
