<svg width="24" height="24" viewBox="0 0 24 24" fill="none" xmlns="http://www.w3.org/2000/svg">
<path fill-rule="evenodd" clip-rule="evenodd" d="M10.1688 1.76169C11.1972 0.89492 12.8201 0.882454 13.8436 1.7656L15.4149 3.10935L15.535 3.18552C15.5904 3.2153 15.6611 3.24709 15.744 3.27731C15.9108 3.33803 16.0464 3.35928 16.1093 3.35935H17.8094C19.3662 3.35947 20.6393 4.63266 20.6395 6.18942V7.89059C20.6397 7.9526 20.6607 8.08339 20.7206 8.24606C20.7804 8.40853 20.8501 8.52449 20.8905 8.57321L22.2333 10.1445L22.2382 10.1494C23.1048 11.1778 23.1154 12.7997 22.2323 13.8232L22.2333 13.8242L20.8885 15.3945L20.8905 15.3965C20.8501 15.445 20.7804 15.5604 20.7206 15.7226C20.6606 15.8857 20.6396 16.0181 20.6395 16.08V17.7793C20.6395 19.3362 19.3664 20.6092 17.8094 20.6093H16.1093C16.0474 20.6094 15.9158 20.6304 15.7528 20.6904C15.59 20.7503 15.4742 20.8209 15.4257 20.8613L13.8544 22.205L13.8495 22.208C12.8209 23.0749 11.1982 23.0867 10.1747 22.2031L8.60339 20.8613L8.48328 20.7841C8.42766 20.7542 8.35633 20.7218 8.27331 20.6914C8.1063 20.6303 7.97442 20.6094 7.91882 20.6093H6.16882C4.61195 20.6091 3.33874 19.3362 3.33874 17.7793V16.0703C3.33874 16.0084 3.31893 15.8732 3.26062 15.7099C3.2018 15.5453 3.13653 15.4414 3.10828 15.4082L3.10339 15.4023L1.75378 13.8125L1.74988 13.8095C0.888506 12.7848 0.888594 11.1752 1.74988 10.1504L1.75378 10.1474L3.09753 8.56247C3.13476 8.51753 3.20248 8.40601 3.26062 8.24411C3.31859 8.08261 3.33859 7.95169 3.33874 7.89059V6.20017C3.33885 4.64333 4.61201 3.3703 6.16882 3.37009H7.89831C7.96003 3.37009 8.09245 3.34911 8.25574 3.28903C8.41853 3.22908 8.5344 3.15853 8.58289 3.11813L10.1639 1.7656L10.1688 1.76169ZM16.8876 8.53317C16.5365 8.18204 15.9668 8.18168 15.6151 8.5322L10.5809 13.5576L8.3866 11.3633C8.03511 11.0122 7.46547 11.012 7.11414 11.3633C6.7627 11.7147 6.76268 12.2852 7.11414 12.6367L9.94421 15.4668C10.2953 15.8177 10.8651 15.8172 11.2167 15.4668L16.8866 9.80759C17.2384 9.45643 17.2387 8.88495 16.8876 8.53317Z" fill="#1B5E9E"/>
</svg>
