<svg width="48" height="48" viewBox="0 0 48 48" fill="none" xmlns="http://www.w3.org/2000/svg">
<g clip-path="url(#clip0_2167_5818)">
<path d="M43.4576 35H12.5424C10.5844 35 9 33.4219 9 31.4717V28.9955C9 27.8151 9.59254 26.7117 10.5715 26.0574L12.8644 24.5434V16.0755C12.8644 7.74868 19.64 1 28 1C36.36 1 43.1356 7.74868 43.1356 16.0755V24.5434L45.4156 26.0574C46.4075 26.7117 47 27.8151 47 28.9955V31.4717C47 33.4219 45.4156 35 43.4576 35Z" fill="url(#paint0_linear_2167_5818)"/>
<foreignObject x="-5" y="7" width="50" height="46"><div xmlns="http://www.w3.org/1999/xhtml" style="backdrop-filter:blur(3px);clip-path:url(#bgblur_1_2167_5818_clip_path);height:100%;width:100%"></div></foreignObject><g filter="url(#filter0_i_2167_5818)" data-figma-bg-blur-radius="6">
<path d="M35.4576 47H4.54237C2.58441 47 1 45.4219 1 43.4717V40.9955C1 39.8151 1.59254 38.7117 2.57153 38.0574L4.86441 36.5434V28.0755C4.86441 19.7487 11.64 13 20 13C28.36 13 35.1356 19.7487 35.1356 28.0755V36.5434L37.4156 38.0574C38.4075 38.7117 39 39.8151 39 40.9955V43.4717C39 45.4219 37.4156 47 35.4576 47Z" fill="#F59E0B" fill-opacity="0.4"/>
<path d="M20 13.5C28.0856 13.5 34.6356 20.0265 34.6357 28.0752V36.8115L34.8594 36.96L37.1387 38.4736L37.1406 38.4746C37.9922 39.0365 38.4999 39.9832 38.5 40.9951V43.4717C38.5 45.1437 37.1415 46.4998 35.458 46.5H4.54199C2.85847 46.4998 1.5 45.1437 1.5 43.4717V40.9951C1.50012 39.9835 2.00764 39.0367 2.84668 38.4746L5.13965 36.9609L5.36426 36.8125V28.0752C5.36441 20.0265 11.9144 13.5 20 13.5Z" stroke="white" stroke-opacity="0.2"/>
</g>
<g filter="url(#filter1_d_2167_5818)">
<path d="M20 25V34" stroke="white" stroke-width="3" stroke-linecap="round"/>
<path d="M20 40V40.0001" stroke="white" stroke-width="3" stroke-linecap="round"/>
</g>
</g>
<defs>
<filter id="filter0_i_2167_5818" x="-5" y="7" width="50" height="46" filterUnits="userSpaceOnUse" color-interpolation-filters="sRGB">
<feFlood flood-opacity="0" result="BackgroundImageFix"/>
<feBlend mode="normal" in="SourceGraphic" in2="BackgroundImageFix" result="shape"/>
<feColorMatrix in="SourceAlpha" type="matrix" values="0 0 0 0 0 0 0 0 0 0 0 0 0 0 0 0 0 0 127 0" result="hardAlpha"/>
<feOffset/>
<feGaussianBlur stdDeviation="5"/>
<feComposite in2="hardAlpha" operator="arithmetic" k2="-1" k3="1"/>
<feColorMatrix type="matrix" values="0 0 0 0 1 0 0 0 0 1 0 0 0 0 1 0 0 0 0.9 0"/>
<feBlend mode="normal" in2="shape" result="effect1_innerShadow_2167_5818"/>
</filter>
<clipPath id="bgblur_1_2167_5818_clip_path" transform="translate(5 -7)"><path d="M35.4576 47H4.54237C2.58441 47 1 45.4219 1 43.4717V40.9955C1 39.8151 1.59254 38.7117 2.57153 38.0574L4.86441 36.5434V28.0755C4.86441 19.7487 11.64 13 20 13C28.36 13 35.1356 19.7487 35.1356 28.0755V36.5434L37.4156 38.0574C38.4075 38.7117 39 39.8151 39 40.9955V43.4717C39 45.4219 37.4156 47 35.4576 47Z"/>
</clipPath><filter id="filter1_d_2167_5818" x="10.5" y="15.5" width="19" height="34.0001" filterUnits="userSpaceOnUse" color-interpolation-filters="sRGB">
<feFlood flood-opacity="0" result="BackgroundImageFix"/>
<feColorMatrix in="SourceAlpha" type="matrix" values="0 0 0 0 0 0 0 0 0 0 0 0 0 0 0 0 0 0 127 0" result="hardAlpha"/>
<feOffset/>
<feGaussianBlur stdDeviation="4"/>
<feComposite in2="hardAlpha" operator="out"/>
<feColorMatrix type="matrix" values="0 0 0 0 0.33693 0 0 0 0 0.598955 0 0 0 0 0.696695 0 0 0 0.2 0"/>
<feBlend mode="normal" in2="BackgroundImageFix" result="effect1_dropShadow_2167_5818"/>
<feBlend mode="normal" in="SourceGraphic" in2="effect1_dropShadow_2167_5818" result="shape"/>
</filter>
<linearGradient id="paint0_linear_2167_5818" x1="18.5" y1="2.47826" x2="40.7484" y2="28.9747" gradientUnits="userSpaceOnUse">
<stop stop-color="#F59E0B"/>
<stop offset="1" stop-color="#FF7700"/>
</linearGradient>
<clipPath id="clip0_2167_5818">
<rect width="48" height="48" fill="white"/>
</clipPath>
</defs>
</svg>
