<svg width="24" height="24" viewBox="0 0 24 24" fill="none" xmlns="http://www.w3.org/2000/svg">
<path d="M19.1808 11.4925C18.5652 11.3305 17.8416 11.2441 16.9776 11.2441C15.7788 11.2441 15.336 11.5357 14.7204 12.0001C14.688 12.0217 14.6556 12.0541 14.6232 12.0865L13.5972 13.1773C12.7332 14.0845 11.178 14.0953 10.314 13.1665L9.28803 12.0865C9.25563 12.0541 9.22323 12.0217 9.19083 12.0001C8.57523 11.5357 8.13243 11.2441 6.93363 11.2441C6.06963 11.2441 5.34603 11.3305 4.73043 11.4925C2.16003 12.1837 2.16003 14.2249 2.16003 16.0177V17.0221C2.16003 19.7329 2.16003 22.8001 7.93803 22.8001H15.9732C19.8072 22.8001 21.7512 20.8561 21.7512 17.0221V16.0177C21.7512 14.2249 21.7512 12.1837 19.1808 11.4925ZM14.472 18.9121H9.43923C9.02883 18.9121 8.69403 18.5773 8.69403 18.1561C8.69403 17.7349 9.02883 17.4001 9.43923 17.4001H14.472C14.8824 17.4001 15.2172 17.7349 15.2172 18.1561C15.2172 18.5773 14.8824 18.9121 14.472 18.9121Z" fill="#1B5E9E"/>
<path d="M19.969 5.97379V9.96979C19.9258 9.94819 19.8718 9.93739 19.8286 9.92659C19.0726 9.72139 18.2194 9.62419 17.2042 9.62419C15.541 9.62419 14.7634 10.1102 13.9642 10.715C13.8562 10.7906 13.759 10.8878 13.6726 10.9742L12.6358 12.065C12.5386 12.173 12.3658 12.2378 12.1822 12.2378C11.9986 12.2378 11.8258 12.173 11.7178 12.0542L10.7026 10.985C10.6054 10.877 10.4974 10.7798 10.3894 10.7042C9.61178 10.1102 8.82338 9.62419 7.16019 9.62419C6.14499 9.62419 5.29179 9.72139 4.53579 9.92659C4.49259 9.93739 4.43859 9.94819 4.39539 9.96979V5.97379C4.39539 3.73819 4.39539 1.2002 9.16898 1.2002H15.1954C19.969 1.2002 19.969 3.73819 19.969 5.97379Z" fill="#1B5E9E"/>
</svg>
