<svg width="20" height="20" viewBox="0 0 20 20" fill="none" xmlns="http://www.w3.org/2000/svg">
<path d="M16.6417 1.45801H14.1917C13.1333 1.45801 12.5 2.09134 12.5 3.14967V5.59967C12.5 6.65801 13.1333 7.29134 14.1917 7.29134H16.6417C17.7 7.29134 18.3333 6.65801 18.3333 5.59967V3.14967C18.3333 2.09134 17.7 1.45801 16.6417 1.45801ZM16.825 4.21634C16.725 4.31634 16.5917 4.36634 16.4583 4.36634C16.325 4.36634 16.1917 4.31634 16.0917 4.21634L15.9417 4.06634V5.93301C15.9417 6.22467 15.7083 6.45801 15.4167 6.45801C15.125 6.45801 14.8917 6.22467 14.8917 5.93301V4.06634L14.7417 4.21634C14.5417 4.41634 14.2083 4.41634 14.0083 4.21634C13.8083 4.01634 13.8083 3.68301 14.0083 3.48301L15.05 2.44134C15.0917 2.39967 15.15 2.36634 15.2083 2.34134C15.225 2.33301 15.2417 2.33301 15.2583 2.32467C15.3 2.30801 15.3417 2.29967 15.3917 2.29967C15.4083 2.29967 15.425 2.29967 15.4417 2.29967C15.5 2.29967 15.55 2.30801 15.6083 2.33301C15.6167 2.33301 15.6167 2.33301 15.625 2.33301C15.6833 2.35801 15.7333 2.39134 15.775 2.43301C15.7833 2.44134 15.7833 2.44134 15.7917 2.44134L16.8333 3.48301C17.0333 3.68301 17.0333 4.01634 16.825 4.21634Z" fill="#F59E0B"/>
<path d="M1.66699 9.55033V13.717C1.66699 15.6253 3.20866 17.167 5.11699 17.167H14.8753C16.7837 17.167 18.3337 15.617 18.3337 13.7087V9.55033C18.3337 8.99199 17.8837 8.54199 17.3253 8.54199H2.67533C2.11699 8.54199 1.66699 8.99199 1.66699 9.55033ZM6.66699 14.3753H5.00033C4.65866 14.3753 4.37533 14.092 4.37533 13.7503C4.37533 13.4087 4.65866 13.1253 5.00033 13.1253H6.66699C7.00866 13.1253 7.29199 13.4087 7.29199 13.7503C7.29199 14.092 7.00866 14.3753 6.66699 14.3753ZM12.0837 14.3753H8.75033C8.40866 14.3753 8.12533 14.092 8.12533 13.7503C8.12533 13.4087 8.40866 13.1253 8.75033 13.1253H12.0837C12.4253 13.1253 12.7087 13.4087 12.7087 13.7503C12.7087 14.092 12.4253 14.3753 12.0837 14.3753Z" fill="#F59E0B"/>
<path d="M11.2503 3.84134V6.28301C11.2503 6.84134 10.8003 7.29134 10.242 7.29134H2.67533C2.10866 7.29134 1.66699 6.82467 1.66699 6.26634C1.67533 5.32467 2.05033 4.46634 2.67533 3.84134C3.30033 3.21634 4.16699 2.83301 5.11699 2.83301H10.242C10.8003 2.83301 11.2503 3.28301 11.2503 3.84134Z" fill="#F59E0B"/>
</svg>
