<svg width="20" height="20" viewBox="0 0 20 20" fill="none" xmlns="http://www.w3.org/2000/svg">
<path d="M6.875 4.79199C6.53333 4.79199 6.25 4.50866 6.25 4.16699V1.66699C6.25 1.32533 6.53333 1.04199 6.875 1.04199C7.21667 1.04199 7.5 1.32533 7.5 1.66699V4.16699C7.5 4.50866 7.21667 4.79199 6.875 4.79199Z" fill="#059669"/>
<path d="M13.125 4.79199C12.7833 4.79199 12.5 4.50866 12.5 4.16699V1.66699C12.5 1.32533 12.7833 1.04199 13.125 1.04199C13.4667 1.04199 13.75 1.32533 13.75 1.66699V4.16699C13.75 4.50866 13.4667 4.79199 13.125 4.79199Z" fill="#059669"/>
<path d="M10.3838 2.91699C10.842 2.91699 11.2176 3.29181 11.2178 3.75V4.61719C11.2179 5.717 12.1672 6.59987 13.292 6.4834C14.2669 6.3834 14.9677 5.48374 14.9678 4.50879V4.42578C14.9678 3.73429 15.7586 3.34216 16.3086 3.75C17.2836 4.49167 17.917 5.65059 17.917 6.97559V14.2754C17.917 16.5169 16.1008 18.3338 13.8594 18.334H6.14258C3.90093 18.334 2.08402 16.517 2.08398 14.2754V6.97559C2.08398 6.85892 2.09225 6.74167 2.10059 6.625C2.10891 6.52512 2.11714 6.43337 2.13379 6.3418C2.15044 6.21694 2.1757 6.09213 2.20898 5.97559C2.24228 5.85071 2.27528 5.72546 2.3252 5.60059C2.34186 5.55892 2.35098 5.52507 2.37598 5.4834C2.40926 5.37535 2.45891 5.27553 2.50879 5.17578C2.50879 5.15911 2.51751 5.15046 2.53418 5.13379C2.59251 5.01712 2.65938 4.89154 2.73438 4.7832C2.74262 4.76688 2.75054 4.75825 2.75879 4.75C2.82543 4.64173 2.90058 4.53354 2.99219 4.43359C3.16719 4.20859 3.37604 4.00072 3.60938 3.81738C3.63437 3.79238 3.66738 3.775 3.69238 3.75C3.72562 3.72508 3.75091 3.70902 3.78418 3.69238C3.79237 3.68419 3.8004 3.6837 3.80859 3.67578C4.35026 3.40078 5.03418 3.78411 5.03418 4.42578V4.50879C5.03422 5.18374 5.36761 5.81695 5.89258 6.18359C5.96754 6.23355 6.05051 6.27574 6.13379 6.31738C6.21706 6.35902 6.30052 6.392 6.38379 6.41699C6.48378 6.45032 6.59233 6.47506 6.70898 6.4834C6.84232 6.50007 6.97604 6.50007 7.10938 6.4834C7.22575 6.47505 7.33381 6.45023 7.43359 6.41699C7.52507 6.39204 7.60871 6.35893 7.68359 6.31738C7.76693 6.27572 7.85078 6.23359 7.92578 6.18359C8.44233 5.85861 8.78411 5.27539 8.78418 4.61719V3.75C8.78436 3.29186 9.15902 2.91706 9.61719 2.91699H10.3838ZM10.0107 9.28125L8.69922 10.1309V11.002L9.9375 10.2109H9.9668V14.584H10.9258V9.28125H10.0107Z" fill="#059669"/>
</svg>
