<svg width="48" height="48" viewBox="0 0 48 48" fill="none" xmlns="http://www.w3.org/2000/svg">
<rect x="11" y="1" width="36" height="36" rx="18" fill="#48C6F5"/>
<rect x="11" y="1" width="36" height="36" rx="18" fill="url(#paint0_linear_2167_5817)"/>
<foreignObject x="-5" y="5" width="48" height="48"><div xmlns="http://www.w3.org/1999/xhtml" style="backdrop-filter:blur(3px);clip-path:url(#bgblur_0_2167_5817_clip_path);height:100%;width:100%"></div></foreignObject><g filter="url(#filter0_i_2167_5817)" data-figma-bg-blur-radius="6">
<rect x="1" y="11" width="36" height="36" rx="18" fill="#85DEFF" fill-opacity="0.4"/>
<rect x="1.5" y="11.5" width="35" height="35" rx="17.5" stroke="white" stroke-opacity="0.2"/>
</g>
<g filter="url(#filter1_d_2167_5817)">
<path d="M25.3163 23.4578C25.931 22.8467 26.9269 22.8474 27.5404 23.4599C28.154 24.0729 28.1531 25.0677 27.5383 25.6797L17.6304 35.5412C17.0161 36.1527 16.0202 36.1531 15.4064 35.5412L10.4606 30.6094C9.84643 29.997 9.84648 29.0042 10.4606 28.3917C11.0749 27.7792 12.0705 27.7792 12.6847 28.3917L16.5184 32.2146L25.3163 23.4578Z" fill="white"/>
</g>
<defs>
<filter id="filter0_i_2167_5817" x="-5" y="5" width="48" height="48" filterUnits="userSpaceOnUse" color-interpolation-filters="sRGB">
<feFlood flood-opacity="0" result="BackgroundImageFix"/>
<feBlend mode="normal" in="SourceGraphic" in2="BackgroundImageFix" result="shape"/>
<feColorMatrix in="SourceAlpha" type="matrix" values="0 0 0 0 0 0 0 0 0 0 0 0 0 0 0 0 0 0 127 0" result="hardAlpha"/>
<feOffset/>
<feGaussianBlur stdDeviation="5"/>
<feComposite in2="hardAlpha" operator="arithmetic" k2="-1" k3="1"/>
<feColorMatrix type="matrix" values="0 0 0 0 1 0 0 0 0 1 0 0 0 0 1 0 0 0 0.9 0"/>
<feBlend mode="normal" in2="shape" result="effect1_innerShadow_2167_5817"/>
</filter>
<clipPath id="bgblur_0_2167_5817_clip_path" transform="translate(5 -5)"><rect x="1" y="11" width="36" height="36" rx="18"/>
</clipPath><filter id="filter1_d_2167_5817" x="2" y="15" width="34" height="29" filterUnits="userSpaceOnUse" color-interpolation-filters="sRGB">
<feFlood flood-opacity="0" result="BackgroundImageFix"/>
<feColorMatrix in="SourceAlpha" type="matrix" values="0 0 0 0 0 0 0 0 0 0 0 0 0 0 0 0 0 0 127 0" result="hardAlpha"/>
<feOffset/>
<feGaussianBlur stdDeviation="4"/>
<feComposite in2="hardAlpha" operator="out"/>
<feColorMatrix type="matrix" values="0 0 0 0 0.33693 0 0 0 0 0.598955 0 0 0 0 0.696695 0 0 0 0.2 0"/>
<feBlend mode="normal" in2="BackgroundImageFix" result="effect1_dropShadow_2167_5817"/>
<feBlend mode="normal" in="SourceGraphic" in2="effect1_dropShadow_2167_5817" result="shape"/>
</filter>
<linearGradient id="paint0_linear_2167_5817" x1="11" y1="1" x2="40.1172" y2="41.8999" gradientUnits="userSpaceOnUse">
<stop stop-color="#48C6F5"/>
<stop offset="1" stop-color="#3B94E9"/>
</linearGradient>
</defs>
</svg>
