<svg width="24" height="24" viewBox="0 0 24 24" fill="none" xmlns="http://www.w3.org/2000/svg">
<path d="M21.9698 18.33C21.9698 18.69 21.8898 19.06 21.7198 19.42C21.5498 19.78 21.3298 20.12 21.0398 20.44C20.5498 20.98 20.0098 21.37 19.3998 21.62C18.7998 21.87 18.1498 22 17.4498 22C16.4298 22 15.3398 21.76 14.1898 21.27C13.0398 20.78 11.8898 20.12 10.7498 19.29C9.59976 18.45 8.50976 17.52 7.46976 16.49C6.43976 15.45 5.50976 14.36 4.67976 13.22C3.85976 12.08 3.19976 10.94 2.71976 9.81C2.23976 8.67 1.99976 7.58 1.99976 6.54C1.99976 5.86 2.11976 5.21 2.35976 4.61C2.59976 4 2.97976 3.44 3.50976 2.94C4.14976 2.31 4.84976 2 5.58976 2C5.86976 2 6.14976 2.06 6.39976 2.18C6.65976 2.3 6.88976 2.48 7.06976 2.74L9.38976 6.01C9.56976 6.26 9.69976 6.49 9.78976 6.71C9.87976 6.92 9.92976 7.13 9.92976 7.32C9.92976 7.56 9.85976 7.8 9.71976 8.03C9.58976 8.26 9.39976 8.5 9.15976 8.74L8.39976 9.53C8.28976 9.64 8.23976 9.77 8.23976 9.93C8.23976 10.01 8.24976 10.08 8.26976 10.16C8.29976 10.24 8.32976 10.3 8.34976 10.36C8.52976 10.69 8.83976 11.12 9.27976 11.64C9.72976 12.16 10.2098 12.69 10.7298 13.22C11.2698 13.75 11.7898 14.24 12.3198 14.69C12.8398 15.13 13.2698 15.43 13.6098 15.61C13.6598 15.63 13.7198 15.66 13.7898 15.69C13.8698 15.72 13.9498 15.73 14.0398 15.73C14.2098 15.73 14.3398 15.67 14.4498 15.56L15.2098 14.81C15.4598 14.56 15.6998 14.37 15.9298 14.25C16.1598 14.11 16.3898 14.04 16.6398 14.04C16.8298 14.04 17.0298 14.08 17.2498 14.17C17.4698 14.26 17.6998 14.39 17.9498 14.56L21.2598 16.91C21.5198 17.09 21.6998 17.3 21.8098 17.55C21.9098 17.8 21.9698 18.05 21.9698 18.33Z" fill="#1B5E9E"/>
</svg>
