<svg width="48" height="48" viewBox="0 0 48 48" fill="none" xmlns="http://www.w3.org/2000/svg">
<path d="M12 15.4C12 9.40043 12 6.40064 13.5279 4.29772C14.0213 3.61856 14.6186 3.0213 15.2977 2.52786C17.4006 1 20.4004 1 26.4 1H32.6C38.5996 1 41.5994 1 43.7023 2.52786C44.3814 3.0213 44.9787 3.61856 45.4721 4.29772C47 6.40064 47 9.40043 47 15.4V21.6C47 27.5996 47 30.5994 45.4721 32.7023C44.9787 33.3814 44.3814 33.9787 43.7023 34.4721C41.5994 36 38.5996 36 32.6 36H26.4C20.4004 36 17.4006 36 15.2977 34.4721C14.6186 33.9787 14.0213 33.3814 13.5279 32.7023C12 30.5994 12 27.5996 12 21.6V15.4Z" fill="#48C6F5"/>
<path d="M12 15.4C12 9.40043 12 6.40064 13.5279 4.29772C14.0213 3.61856 14.6186 3.0213 15.2977 2.52786C17.4006 1 20.4004 1 26.4 1H32.6C38.5996 1 41.5994 1 43.7023 2.52786C44.3814 3.0213 44.9787 3.61856 45.4721 4.29772C47 6.40064 47 9.40043 47 15.4V21.6C47 27.5996 47 30.5994 45.4721 32.7023C44.9787 33.3814 44.3814 33.9787 43.7023 34.4721C41.5994 36 38.5996 36 32.6 36H26.4C20.4004 36 17.4006 36 15.2977 34.4721C14.6186 33.9787 14.0213 33.3814 13.5279 32.7023C12 30.5994 12 27.5996 12 21.6V15.4Z" fill="url(#paint0_linear_2167_5894)"/>
<foreignObject x="-6" y="7" width="47" height="47"><div xmlns="http://www.w3.org/1999/xhtml" style="backdrop-filter:blur(3px);clip-path:url(#bgblur_0_2167_5894_clip_path);height:100%;width:100%"></div></foreignObject><g filter="url(#filter0_i_2167_5894)" data-figma-bg-blur-radius="6">
<path d="M0 27.4C0 21.4004 0 18.4006 1.52786 16.2977C2.0213 15.6186 2.61856 15.0213 3.29772 14.5279C5.40064 13 8.40043 13 14.4 13H20.6C26.5996 13 29.5994 13 31.7023 14.5279C32.3814 15.0213 32.9787 15.6186 33.4721 16.2977C35 18.4006 35 21.4004 35 27.4V33.6C35 39.5996 35 42.5994 33.4721 44.7023C32.9787 45.3814 32.3814 45.9787 31.7023 46.4721C29.5994 48 26.5996 48 20.6 48H14.4C8.40043 48 5.40064 48 3.29772 46.4721C2.61856 45.9787 2.0213 45.3814 1.52786 44.7023C0 42.5994 0 39.5996 0 33.6V27.4Z" fill="#85DEFF" fill-opacity="0.4"/>
<path d="M14.4004 13.5H20.5996C23.6105 13.5 25.829 13.5011 27.5586 13.6885C29.2787 13.8749 30.4562 14.2409 31.4082 14.9326C32.0449 15.3952 32.6048 15.9551 33.0674 16.5918C33.759 17.5438 34.1251 18.7213 34.3115 20.4414C34.4989 22.171 34.5 24.3895 34.5 27.4004V33.5996C34.5 36.6105 34.4989 38.829 34.3115 40.5586C34.1251 42.2787 33.759 43.4562 33.0674 44.4082C32.6048 45.0449 32.0449 45.6048 31.4082 46.0674C30.4562 46.759 29.2787 47.1251 27.5586 47.3115C25.829 47.4989 23.6105 47.5 20.5996 47.5H14.4004C11.3895 47.5 9.17098 47.4989 7.44141 47.3115C5.72125 47.1251 4.5438 46.759 3.5918 46.0674C2.95509 45.6048 2.39521 45.0449 1.93262 44.4082C1.24095 43.4562 0.874854 42.2787 0.688477 40.5586C0.501089 38.829 0.5 36.6105 0.5 33.5996V27.4004C0.5 24.3895 0.501089 22.171 0.688477 20.4414C0.874854 18.7213 1.24095 17.5438 1.93262 16.5918C2.39521 15.9551 2.95509 15.3952 3.5918 14.9326C4.5438 14.2409 5.72125 13.8749 7.44141 13.6885C9.17098 13.5011 11.3895 13.5 14.4004 13.5Z" stroke="white" stroke-opacity="0.2"/>
</g>
<path d="M27.4028 34.0941C26.0219 32.2917 25.3315 31.3904 24.476 31.0962C23.8437 30.8786 23.1567 30.8786 22.5243 31.0962C21.6689 31.3904 20.9784 32.2917 19.5976 34.0941C17.5726 36.7373 16.5601 38.059 16.6232 39.17C16.6693 39.9834 17.0443 40.743 17.6619 41.2743C18.5055 42 20.1704 42 23.5002 42C26.83 42 28.4948 42 29.3385 41.2743C29.956 40.743 30.331 39.9834 30.3772 39.17C30.4402 38.059 29.4277 36.7373 27.4028 34.0941Z" fill="white"/>
<path d="M18.5561 31.914C16.2809 28.3528 15.1433 26.5722 13.4999 26.5722C11.8566 26.5722 10.719 28.3528 8.44378 31.914L7.75074 32.9988C5.28275 36.8618 4.04875 38.7932 4.77275 40.2996C4.81877 40.3953 4.86984 40.4886 4.92575 40.5789C5.80535 42 8.09738 42 12.6814 42H19.076C19.9538 42 20.3927 42 20.6363 41.9596C22.9001 41.5844 23.9217 38.9099 22.4844 37.121C22.3298 36.9285 22.0026 36.6359 21.3484 36.0508C21.3067 36.0135 21.2859 35.9949 21.2655 35.9759C21.0927 35.8155 20.9395 35.6354 20.8089 35.4391C20.7935 35.416 20.7785 35.3924 20.7484 35.3453L18.5561 31.914Z" fill="white"/>
<g filter="url(#filter1_d_2167_5894)">
<circle cx="22" cy="23" r="3" fill="white"/>
</g>
<defs>
<filter id="filter0_i_2167_5894" x="-6" y="7" width="47" height="47" filterUnits="userSpaceOnUse" color-interpolation-filters="sRGB">
<feFlood flood-opacity="0" result="BackgroundImageFix"/>
<feBlend mode="normal" in="SourceGraphic" in2="BackgroundImageFix" result="shape"/>
<feColorMatrix in="SourceAlpha" type="matrix" values="0 0 0 0 0 0 0 0 0 0 0 0 0 0 0 0 0 0 127 0" result="hardAlpha"/>
<feOffset/>
<feGaussianBlur stdDeviation="5"/>
<feComposite in2="hardAlpha" operator="arithmetic" k2="-1" k3="1"/>
<feColorMatrix type="matrix" values="0 0 0 0 1 0 0 0 0 1 0 0 0 0 1 0 0 0 0.9 0"/>
<feBlend mode="normal" in2="shape" result="effect1_innerShadow_2167_5894"/>
</filter>
<clipPath id="bgblur_0_2167_5894_clip_path" transform="translate(6 -7)"><path d="M0 27.4C0 21.4004 0 18.4006 1.52786 16.2977C2.0213 15.6186 2.61856 15.0213 3.29772 14.5279C5.40064 13 8.40043 13 14.4 13H20.6C26.5996 13 29.5994 13 31.7023 14.5279C32.3814 15.0213 32.9787 15.6186 33.4721 16.2977C35 18.4006 35 21.4004 35 27.4V33.6C35 39.5996 35 42.5994 33.4721 44.7023C32.9787 45.3814 32.3814 45.9787 31.7023 46.4721C29.5994 48 26.5996 48 20.6 48H14.4C8.40043 48 5.40064 48 3.29772 46.4721C2.61856 45.9787 2.0213 45.3814 1.52786 44.7023C0 42.5994 0 39.5996 0 33.6V27.4Z"/>
</clipPath><filter id="filter1_d_2167_5894" x="11" y="12" width="22" height="22" filterUnits="userSpaceOnUse" color-interpolation-filters="sRGB">
<feFlood flood-opacity="0" result="BackgroundImageFix"/>
<feColorMatrix in="SourceAlpha" type="matrix" values="0 0 0 0 0 0 0 0 0 0 0 0 0 0 0 0 0 0 127 0" result="hardAlpha"/>
<feOffset/>
<feGaussianBlur stdDeviation="4"/>
<feComposite in2="hardAlpha" operator="out"/>
<feColorMatrix type="matrix" values="0 0 0 0 0.33693 0 0 0 0 0.598955 0 0 0 0 0.696695 0 0 0 0.2 0"/>
<feBlend mode="normal" in2="BackgroundImageFix" result="effect1_dropShadow_2167_5894"/>
<feBlend mode="normal" in="SourceGraphic" in2="effect1_dropShadow_2167_5894" result="shape"/>
</filter>
<linearGradient id="paint0_linear_2167_5894" x1="12" y1="1" x2="40.3084" y2="40.7638" gradientUnits="userSpaceOnUse">
<stop stop-color="#48C6F5"/>
<stop offset="1" stop-color="#3B94E9"/>
</linearGradient>
</defs>
</svg>
