<svg width="20" height="20" viewBox="0 0 20 20" fill="none" xmlns="http://www.w3.org/2000/svg">
<path d="M15.9748 5.53359C15.6165 3.72526 14.2748 2.93359 12.4081 2.93359H5.09147C2.89147 2.93359 1.4248 4.03359 1.4248 6.60026V10.8919C1.4248 12.7419 2.18314 13.8253 3.43314 14.2919C3.61647 14.3586 3.81647 14.4169 4.0248 14.4503C4.35814 14.5253 4.71647 14.5586 5.09147 14.5586H12.4165C14.6165 14.5586 16.0831 13.4586 16.0831 10.8919V6.60026C16.0831 6.20859 16.0498 5.85859 15.9748 5.53359ZM4.60814 10.0003C4.60814 10.3419 4.32481 10.6253 3.98314 10.6253C3.64147 10.6253 3.35814 10.3419 3.35814 10.0003V7.50026C3.35814 7.15859 3.64147 6.87526 3.98314 6.87526C4.32481 6.87526 4.60814 7.15859 4.60814 7.50026V10.0003ZM8.7498 10.9503C7.53314 10.9503 6.54981 9.96693 6.54981 8.75026C6.54981 7.53359 7.53314 6.55026 8.7498 6.55026C9.96647 6.55026 10.9498 7.53359 10.9498 8.75026C10.9498 9.96693 9.96647 10.9503 8.7498 10.9503ZM14.1331 10.0003C14.1331 10.3419 13.8498 10.6253 13.5081 10.6253C13.1665 10.6253 12.8831 10.3419 12.8831 10.0003V7.50026C12.8831 7.15859 13.1665 6.87526 13.5081 6.87526C13.8498 6.87526 14.1331 7.15859 14.1331 7.50026V10.0003Z" fill="#00A0DC"/>
<path d="M18.5831 9.09958V13.3912C18.5831 15.9579 17.1165 17.0662 14.9081 17.0662H7.59147C6.96647 17.0662 6.40814 16.9746 5.92481 16.7912C5.53314 16.6496 5.19147 16.4412 4.91647 16.1746C4.76647 16.0329 4.88314 15.8079 5.09147 15.8079H12.4081C15.4915 15.8079 17.3248 13.9746 17.3248 10.8996V6.59958C17.3248 6.39958 17.5498 6.27458 17.6915 6.42458C18.2581 7.02458 18.5831 7.89958 18.5831 9.09958Z" fill="#00A0DC"/>
</svg>
