<svg width="24" height="24" viewBox="0 0 24 24" fill="none" xmlns="http://www.w3.org/2000/svg">
<path fill-rule="evenodd" clip-rule="evenodd" d="M14.9175 16.2109C14.3651 18.4476 13.3797 20.6158 12.0005 22.6885C10.6212 20.6157 9.6349 18.4477 9.08252 16.2109H14.9175ZM7.0835 16.2109C7.5678 18.4006 8.42436 20.5137 9.60498 22.5293C6.19143 21.7562 3.3902 19.3703 2.05127 16.2109H7.0835ZM21.9478 16.2109C20.6086 19.3707 17.8072 21.7565 14.3931 22.5293C15.5739 20.5135 16.4321 18.4008 16.9165 16.2109H21.9478ZM6.75537 9.73047C6.66718 10.4791 6.62161 11.2357 6.62158 11.999C6.62159 12.7621 6.66722 13.5182 6.75537 14.2666H1.43994C1.2838 13.5356 1.19972 12.7776 1.19971 12C1.19971 11.2214 1.28439 10.4623 1.44092 9.73047H6.75537ZM15.2837 9.73047C15.3823 10.4803 15.435 11.2367 15.4351 11.999C15.435 12.7611 15.3823 13.517 15.2837 14.2666H8.71631C8.61771 13.517 8.56495 12.7611 8.56494 11.999C8.56497 11.2368 8.61771 10.4803 8.71631 9.73047H15.2837ZM22.5591 9.73047C22.7156 10.4623 22.7993 11.2214 22.7993 12C22.7993 12.7775 22.7162 13.5356 22.5601 14.2666H17.2446C17.3328 13.5182 17.3794 12.7621 17.3794 11.999C17.3794 11.2357 17.3328 10.4791 17.2446 9.73047H22.5591ZM14.395 1.4707C17.8076 2.24381 20.6076 4.62883 21.9468 7.78711H16.9165C16.4324 5.59794 15.5752 3.48587 14.395 1.4707ZM9.604 1.46973C8.42367 3.48502 7.56763 5.59782 7.0835 7.78711H2.05225C3.39136 4.62882 6.19144 2.24291 9.604 1.46973ZM12.0005 1.30762C13.3803 3.38076 14.3653 5.54978 14.9175 7.78711H9.08252C9.63475 5.54974 10.6207 3.38079 12.0005 1.30762Z" fill="#1B5E9E"/>
</svg>
