<svg width="24" height="24" viewBox="0 0 24 24" fill="none" xmlns="http://www.w3.org/2000/svg">
<path d="M21.9998 21.25H1.99976C1.58976 21.25 1.24976 21.59 1.24976 22C1.24976 22.41 1.58976 22.75 1.99976 22.75H21.9998C22.4098 22.75 22.7498 22.41 22.7498 22C22.7498 21.59 22.4098 21.25 21.9998 21.25Z" fill="#1B5E9E"/>
<path d="M16.9998 2H6.99976C3.99976 2 2.99976 3.79 2.99976 6V22H20.9998V6C20.9998 3.79 19.9998 2 16.9998 2ZM9.99976 17.25H6.99976C6.58976 17.25 6.24976 16.91 6.24976 16.5C6.24976 16.09 6.58976 15.75 6.99976 15.75H9.99976C10.4098 15.75 10.7498 16.09 10.7498 16.5C10.7498 16.91 10.4098 17.25 9.99976 17.25ZM9.99976 12.75H6.99976C6.58976 12.75 6.24976 12.41 6.24976 12C6.24976 11.59 6.58976 11.25 6.99976 11.25H9.99976C10.4098 11.25 10.7498 11.59 10.7498 12C10.7498 12.41 10.4098 12.75 9.99976 12.75ZM9.99976 8.25H6.99976C6.58976 8.25 6.24976 7.91 6.24976 7.5C6.24976 7.09 6.58976 6.75 6.99976 6.75H9.99976C10.4098 6.75 10.7498 7.09 10.7498 7.5C10.7498 7.91 10.4098 8.25 9.99976 8.25ZM16.9998 17.25H13.9998C13.5898 17.25 13.2498 16.91 13.2498 16.5C13.2498 16.09 13.5898 15.75 13.9998 15.75H16.9998C17.4098 15.75 17.7498 16.09 17.7498 16.5C17.7498 16.91 17.4098 17.25 16.9998 17.25ZM16.9998 12.75H13.9998C13.5898 12.75 13.2498 12.41 13.2498 12C13.2498 11.59 13.5898 11.25 13.9998 11.25H16.9998C17.4098 11.25 17.7498 11.59 17.7498 12C17.7498 12.41 17.4098 12.75 16.9998 12.75ZM16.9998 8.25H13.9998C13.5898 8.25 13.2498 7.91 13.2498 7.5C13.2498 7.09 13.5898 6.75 13.9998 6.75H16.9998C17.4098 6.75 17.7498 7.09 17.7498 7.5C17.7498 7.91 17.4098 8.25 16.9998 8.25Z" fill="#1B5E9E"/>
</svg>
