<svg width="24" height="24" viewBox="0 0 24 24" fill="none" xmlns="http://www.w3.org/2000/svg">
<path d="M8.2502 5.75C7.8402 5.75 7.5002 5.41 7.5002 5V2C7.5002 1.59 7.8402 1.25 8.2502 1.25C8.66019 1.25 9.0002 1.59 9.0002 2V5C9.0002 5.41 8.66019 5.75 8.2502 5.75Z" fill="#059669"/>
<path d="M15.7502 5.75C15.3402 5.75 15.0002 5.41 15.0002 5V2C15.0002 1.59 15.3402 1.25 15.7502 1.25C16.1602 1.25 16.5002 1.59 16.5002 2V5C16.5002 5.41 16.1602 5.75 15.7502 5.75Z" fill="#059669"/>
<path fill-rule="evenodd" clip-rule="evenodd" d="M12.4607 3.5C13.0106 3.5 13.4613 3.94979 13.4615 4.49961V5.54023C13.4617 6.86001 14.6008 7.91946 15.9506 7.77969C17.1205 7.65969 17.9614 6.5801 17.9615 5.41016V5.31055C17.9615 4.48075 18.9105 4.01021 19.5705 4.49961C20.7405 5.38961 21.5006 6.78031 21.5006 8.37031V17.1301C21.5005 19.8199 19.3212 22.0001 16.6314 22.0004H7.37129C4.68132 22.0004 2.50102 19.82 2.50098 17.1301V8.37031C2.50098 8.23031 2.5109 8.08961 2.5209 7.94961C2.53089 7.82976 2.54076 7.71965 2.56074 7.60977C2.58073 7.45994 2.61104 7.31017 2.65098 7.17031C2.69094 7.02047 2.73053 6.87016 2.79043 6.72031C2.81043 6.67031 2.82137 6.62969 2.85137 6.57969C2.89131 6.45003 2.95089 6.33025 3.01074 6.21055C3.01074 6.19055 3.02121 6.18016 3.04121 6.16016C3.11121 6.02016 3.19145 5.86945 3.28145 5.73945C3.29134 5.71987 3.30085 5.70951 3.31074 5.69961C3.39071 5.56968 3.48089 5.43986 3.59082 5.31992C3.80082 5.04992 4.05145 4.80047 4.33145 4.58047C4.36145 4.55047 4.40105 4.52961 4.43105 4.49961C4.47094 4.46971 4.50129 4.45043 4.54121 4.43047C4.55104 4.42064 4.56068 4.42005 4.57051 4.41055C5.22051 4.08055 6.04121 4.54055 6.04121 5.31055V5.41016C6.04126 6.2201 6.44133 6.97995 7.07129 7.41992C7.16124 7.47987 7.26081 7.5305 7.36074 7.58047C7.46067 7.63043 7.56081 7.67001 7.66074 7.7C7.78074 7.74 7.91099 7.76969 8.05098 7.77969C8.21098 7.79969 8.37145 7.79969 8.53145 7.77969C8.67109 7.76966 8.80076 7.73988 8.92051 7.7C9.03028 7.67006 9.13065 7.63032 9.22051 7.58047C9.32051 7.53047 9.42113 7.47992 9.51113 7.41992C10.131 7.02994 10.5411 6.33008 10.5412 5.54023V4.49961C10.5414 3.94984 10.991 3.50009 11.5408 3.5H12.4607ZM12.0131 11.1371L10.4393 12.1566V13.202L11.9252 12.2527H11.9604V17.5004H13.1111V11.1371H12.0131Z" fill="#059669"/>
</svg>
